name rise49.25peak52.1432fall72.8391.mot
datacolumns 19
datarows 15
range 18.12826400000000 18.15160400000000
endheader
time	ground_force1_vx	ground_force1_vy	ground_force1_vz	ground_force1_px	ground_force1_py	ground_force1_pz	ground_force2_vx	ground_force2_vy	ground_force2_vz	ground_force2_px	ground_force2_py	ground_force2_pz	ground_torque1_x	ground_torque1_y	ground_torque1_z	ground_torque2_x	ground_torque2_y	ground_torque2_z	
18.12826400000000	61.95211700000000	813.68759899999998	53.38454200000000	0.33802600000000	0.00000000000000	0.08524100000000	0.00000000000000	0.00000000000000	0.00000000000000	0.00000000000000	0.00000000000000	0.00000000000000	0.00000000000000	24.47409700000000	0.00000000000000	0.00000000000000	0.00000000000000	0.00000000000000	
18.12992600000000	61.24786800000000	814.86078799999996	53.40869500000000	0.33702000000000	0.00000000000000	0.08524000000000	0.00000000000000	0.00000000000000	0.00000000000000	0.00000000000000	0.00000000000000	0.00000000000000	0.00000000000000	24.49815700000000	0.00000000000000	0.00000000000000	0.00000000000000	0.00000000000000	
18.13160400000000	60.54293700000000	815.86896100000001	53.42495200000000	0.33603900000000	0.00000000000000	0.08523700000000	0.00000000000000	0.00000000000000	0.00000000000000	0.00000000000000	0.00000000000000	0.00000000000000	0.00000000000000	24.52053100000000	0.00000000000000	0.00000000000000	0.00000000000000	0.00000000000000	
18.13326000000000	59.83814500000000	816.71349499999997	53.43309000000000	0.33508000000000	0.00000000000000	0.08523300000000	0.00000000000000	0.00000000000000	0.00000000000000	0.00000000000000	0.00000000000000	0.00000000000000	0.00000000000000	24.54097600000000	0.00000000000000	0.00000000000000	0.00000000000000	0.00000000000000	
18.13492900000000	59.13425700000000	817.39599399999997	53.43286800000000	0.33414400000000	0.00000000000000	0.08522700000000	0.00000000000000	0.00000000000000	0.00000000000000	0.00000000000000	0.00000000000000	0.00000000000000	0.00000000000000	24.55922800000000	0.00000000000000	0.00000000000000	0.00000000000000	0.00000000000000	
18.13660700000000	58.43198900000000	817.91829700000005	53.42403100000000	0.33323000000000	0.00000000000000	0.08522000000000	0.00000000000000	0.00000000000000	0.00000000000000	0.00000000000000	0.00000000000000	0.00000000000000	0.00000000000000	24.57500600000000	0.00000000000000	0.00000000000000	0.00000000000000	0.00000000000000	
18.13826600000000	57.73200600000000	818.28247699999997	53.40631200000000	0.33233700000000	0.00000000000000	0.08521200000000	0.00000000000000	0.00000000000000	0.00000000000000	0.00000000000000	0.00000000000000	0.00000000000000	0.00000000000000	24.58801300000000	0.00000000000000	0.00000000000000	0.00000000000000	0.00000000000000	
18.13992900000000	57.03492000000000	818.49084000000005	53.37944000000000	0.33146400000000	0.00000000000000	0.08520300000000	0.00000000000000	0.00000000000000	0.00000000000000	0.00000000000000	0.00000000000000	0.00000000000000	0.00000000000000	24.59794600000000	0.00000000000000	0.00000000000000	0.00000000000000	0.00000000000000	
18.14161000000000	56.34130000000000	818.54592600000001	53.34314500000000	0.33061000000000	0.00000000000000	0.08519200000000	0.00000000000000	0.00000000000000	0.00000000000000	0.00000000000000	0.00000000000000	0.00000000000000	0.00000000000000	24.60449200000000	0.00000000000000	0.00000000000000	0.00000000000000	0.00000000000000	
18.14325800000000	55.65166400000000	818.45050800000001	53.29716300000000	0.32977300000000	0.00000000000000	0.08518000000000	0.00000000000000	0.00000000000000	0.00000000000000	0.00000000000000	0.00000000000000	0.00000000000000	0.00000000000000	24.60733800000000	0.00000000000000	0.00000000000000	0.00000000000000	0.00000000000000	
18.14493300000000	54.96648800000000	818.20758899999998	53.24123800000000	0.32895300000000	0.00000000000000	0.08516700000000	0.00000000000000	0.00000000000000	0.00000000000000	0.00000000000000	0.00000000000000	0.00000000000000	0.00000000000000	24.60617200000000	0.00000000000000	0.00000000000000	0.00000000000000	0.00000000000000	
18.14659900000000	54.28620100000000	817.82039599999996	53.17513000000000	0.32814900000000	0.00000000000000	0.08515400000000	0.00000000000000	0.00000000000000	0.00000000000000	0.00000000000000	0.00000000000000	0.00000000000000	0.00000000000000	24.60068400000000	0.00000000000000	0.00000000000000	0.00000000000000	0.00000000000000	
18.14825900000000	53.61119500000000	817.29237899999998	53.09861800000000	0.32735800000000	0.00000000000000	0.08513900000000	0.00000000000000	0.00000000000000	0.00000000000000	0.00000000000000	0.00000000000000	0.00000000000000	0.00000000000000	24.59057300000000	0.00000000000000	0.00000000000000	0.00000000000000	0.00000000000000	
18.14992700000000	52.94181700000000	816.62720400000001	53.01150100000000	0.32658000000000	0.00000000000000	0.08512300000000	0.00000000000000	0.00000000000000	0.00000000000000	0.00000000000000	0.00000000000000	0.00000000000000	0.00000000000000	24.57555000000000	0.00000000000000	0.00000000000000	0.00000000000000	0.00000000000000	
18.15160400000000	52.27838200000000	815.82874700000002	52.91360600000000	0.32581200000000	0.00000000000000	0.08510700000000	0.00000000000000	0.00000000000000	0.00000000000000	0.00000000000000	0.00000000000000	0.00000000000000	0.00000000000000	24.55533700000000	0.00000000000000	0.00000000000000	0.00000000000000	0.00000000000000	
